<svg width="385" height="287" viewBox="0 0 385 287" fill="none" xmlns="http://www.w3.org/2000/svg">
<rect x="60.3596" y="48.2256" width="257.407" height="188.992" stroke="#C6C6C6" stroke-width="2" stroke-linejoin="round" stroke-dasharray="3 3"/>
<rect y="0.665527" width="268.26" height="202.564" fill="#F1F1F1"/>
<rect x="6.56958" y="30.2288" width="255.121" height="168.621" fill="white"/>
<rect x="27.3735" y="52.1282" width="211.323" height="122.633" rx="8" fill="#F1F1F1"/>
<rect x="244.172" y="13.8047" width="16.4241" height="4.37976" rx="2.18988" fill="#C4C4C4"/>
<rect x="43.2061" y="90.9353" width="78.8672" height="4.75104" rx="2.37552" fill="white"/>
<rect x="43.2061" y="138.446" width="78.8672" height="4.75104" rx="2.37552" fill="white"/>
<rect x="138.227" y="90.9353" width="78.8672" height="4.75104" rx="2.37552" fill="#5236FF"/>
<rect x="43.2061" y="83.3337" width="78.8672" height="4.75104" rx="2.37552" fill="white"/>
<rect x="43.2061" y="130.844" width="78.8672" height="4.75104" rx="2.37552" fill="#FFB422"/>
<rect x="138.227" y="83.3337" width="78.8672" height="4.75104" rx="2.37552" fill="white"/>
<rect x="43.2061" y="98.5369" width="78.8672" height="4.75104" rx="2.37552" fill="white"/>
<rect x="43.2061" y="146.047" width="78.8672" height="4.75104" rx="2.37552" fill="#FFB422"/>
<rect x="138.227" y="98.5369" width="78.8672" height="4.75104" rx="2.37552" fill="white"/>
<rect x="43.2061" y="106.139" width="44.6598" height="4.75104" rx="2.37552" fill="#5236FF"/>
<rect x="43.2061" y="153.649" width="44.6598" height="4.75104" rx="2.37552" fill="white"/>
<rect x="138.227" y="106.139" width="44.6598" height="4.75104" rx="2.37552" fill="white"/>
<circle cx="9.30693" cy="15.4471" r="2.73735" fill="#C4C4C4"/>
<circle cx="16.9716" cy="15.4471" r="2.73735" fill="#C4C4C4"/>
<circle cx="24.6362" cy="15.4471" r="2.73735" fill="#C4C4C4"/>
<g filter="url(#filter0_d_214_21832)">
<rect x="160.082" y="120.392" width="198.883" height="134.678" rx="15" fill="white"/>
</g>
<line x1="201.69" y1="188.316" x2="320.667" y2="188.316" stroke="#F1F1F1"/>
<line x1="199.99" y1="211.299" x2="318.967" y2="211.299" stroke="#F1F1F1"/>
<line x1="199.99" y1="176.824" x2="318.967" y2="176.824" stroke="#F1F1F1"/>
<line x1="199.99" y1="199.808" x2="318.967" y2="199.808" stroke="#F1F1F1"/>
<line x1="199.99" y1="165.332" x2="318.967" y2="165.332" stroke="#F1F1F1"/>
<line x1="208.989" y1="154.341" x2="208.989" y2="218.263" stroke="#F1F1F1"/>
<line x1="249.781" y1="154.341" x2="249.781" y2="218.263" stroke="#F1F1F1"/>
<line x1="290.573" y1="154.341" x2="290.573" y2="218.263" stroke="#F1F1F1"/>
<line x1="222.586" y1="153.622" x2="222.586" y2="217.545" stroke="#F1F1F1"/>
<line x1="263.378" y1="153.622" x2="263.378" y2="217.545" stroke="#F1F1F1"/>
<line x1="304.17" y1="153.622" x2="304.17" y2="217.545" stroke="#F1F1F1"/>
<line x1="236.183" y1="153.622" x2="236.183" y2="217.545" stroke="#F1F1F1"/>
<line x1="276.975" y1="153.622" x2="276.975" y2="217.545" stroke="#F1F1F1"/>
<line x1="317.767" y1="153.622" x2="317.767" y2="217.545" stroke="#F1F1F1"/>
<rect x="184.787" y="155.55" width="5.70124" height="2.85062" rx="1.42531" fill="#E0DBFF"/>
<rect x="185.737" y="212.562" width="5.70124" height="2.85062" rx="1.42531" fill="#E0DBFF"/>
<rect x="184.787" y="184.056" width="5.70124" height="2.85062" rx="1.42531" fill="#E0DBFF"/>
<rect x="197.14" y="235.367" width="5.70124" height="2.85062" rx="1.42531" transform="rotate(-90 197.14 235.367)" fill="#E0DBFF"/>
<rect x="225.646" y="235.367" width="5.70124" height="2.85062" rx="1.42531" transform="rotate(-90 225.646 235.367)" fill="#E0DBFF"/>
<rect x="254.152" y="235.367" width="5.70124" height="2.85062" rx="1.42531" transform="rotate(-90 254.152 235.367)" fill="#E0DBFF"/>
<rect x="282.658" y="235.367" width="5.70124" height="2.85062" rx="1.42531" transform="rotate(-90 282.658 235.367)" fill="#E0DBFF"/>
<rect x="311.165" y="235.367" width="5.70124" height="2.85062" rx="1.42531" transform="rotate(-90 311.165 235.367)" fill="#E0DBFF"/>
<rect x="184.787" y="169.803" width="5.70124" height="2.85062" rx="1.42531" fill="#E0DBFF"/>
<rect x="185.737" y="226.815" width="5.70124" height="2.85062" rx="1.42531" fill="#E0DBFF"/>
<rect x="184.787" y="198.309" width="5.70124" height="2.85062" rx="1.42531" fill="#E0DBFF"/>
<rect x="211.393" y="235.367" width="5.70124" height="2.85062" rx="1.42531" transform="rotate(-90 211.393 235.367)" fill="#E0DBFF"/>
<rect x="239.899" y="235.367" width="5.70124" height="2.85062" rx="1.42531" transform="rotate(-90 239.899 235.367)" fill="#E0DBFF"/>
<rect x="268.405" y="235.367" width="5.70124" height="2.85062" rx="1.42531" transform="rotate(-90 268.405 235.367)" fill="#E0DBFF"/>
<rect x="296.912" y="235.367" width="5.70124" height="2.85062" rx="1.42531" transform="rotate(-90 296.912 235.367)" fill="#E0DBFF"/>
<rect x="325.418" y="235.367" width="5.70124" height="2.85062" rx="1.42531" transform="rotate(-90 325.418 235.367)" fill="#E0DBFF"/>
<path d="M263.51 194.983C229.667 182.837 207.411 206.837 199.745 221.598C199.406 222.25 199.888 223.014 200.623 223.014H320.617C321.169 223.014 321.617 222.566 321.617 222.014V157.579C321.617 156.39 319.585 156.107 319.199 157.23C312.004 178.141 294.126 205.971 263.51 194.983Z" fill="#FFB422"/>
<path d="M189.538 147.948V232.516H331.594" stroke="#E0DBFF" stroke-width="3"/>
<defs>
<filter id="filter0_d_214_21832" x="144.082" y="109.392" width="240.883" height="176.678" filterUnits="userSpaceOnUse" color-interpolation-filters="sRGB">
<feFlood flood-opacity="0" result="BackgroundImageFix"/>
<feColorMatrix in="SourceAlpha" type="matrix" values="0 0 0 0 0 0 0 0 0 0 0 0 0 0 0 0 0 0 127 0" result="hardAlpha"/>
<feOffset dx="5" dy="10"/>
<feGaussianBlur stdDeviation="10.5"/>
<feComposite in2="hardAlpha" operator="out"/>
<feColorMatrix type="matrix" values="0 0 0 0 0.700272 0 0 0 0 0.700272 0 0 0 0 0.700272 0 0 0 0.25 0"/>
<feBlend mode="normal" in2="BackgroundImageFix" result="effect1_dropShadow_214_21832"/>
<feBlend mode="normal" in="SourceGraphic" in2="effect1_dropShadow_214_21832" result="shape"/>
</filter>
</defs>
</svg>
